<?xml version="1.0" encoding="UTF-8" standalone="no"?>
<!-- Created with Inkscape (http://www.inkscape.org/) -->

<svg
   xmlns:dc="http://purl.org/dc/elements/1.1/"
   xmlns:cc="http://creativecommons.org/ns#"
   xmlns:rdf="http://www.w3.org/1999/02/22-rdf-syntax-ns#"
   xmlns:svg="http://www.w3.org/2000/svg"
   xmlns="http://www.w3.org/2000/svg"
   xmlns:sodipodi="http://sodipodi.sourceforge.net/DTD/sodipodi-0.dtd"
   xmlns:inkscape="http://www.inkscape.org/namespaces/inkscape"
   width="120mm"
   height="60mm"
   viewBox="0 0 425.19686 212.59843"
   id="svg2"
   version="1.1"
   inkscape:version="0.91 r13725"
   sodipodi:docname="bg_1.svg">
  <defs
     id="defs4" />
  <sodipodi:namedview
     id="base"
     pagecolor="#ffffff"
     bordercolor="#666666"
     borderopacity="1.0"
     inkscape:pageopacity="0.0"
     inkscape:pageshadow="2"
     inkscape:zoom="1.979899"
     inkscape:cx="170.00781"
     inkscape:cy="58.103092"
     inkscape:document-units="px"
     inkscape:current-layer="layer1"
     showgrid="false"
     fit-margin-top="0"
     fit-margin-left="0"
     fit-margin-right="0"
     fit-margin-bottom="0"
     inkscape:window-width="1680"
     inkscape:window-height="1026"
     inkscape:window-x="1920"
     inkscape:window-y="24"
     inkscape:window-maximized="1" />
  <metadata
     id="metadata7">
    <rdf:RDF>
      <cc:Work
         rdf:about="">
        <dc:format>image/svg+xml</dc:format>
        <dc:type
           rdf:resource="http://purl.org/dc/dcmitype/StillImage" />
        <dc:title></dc:title>
      </cc:Work>
    </rdf:RDF>
  </metadata>
  <g
     inkscape:label="Layer 1"
     inkscape:groupmode="layer"
     id="layer1"
     transform="translate(-195.87474,-261.61807)">
    <g
       id="g4147"
       transform="matrix(-1,0,0,1,809.00568,2.9438007)">
      <path
         style="fill:#c8a572;fill-opacity:1"
         d="m 332.95984,472.39574 c -46.85439,-3.71305 -87.85574,-43.15965 -93.22451,-89.90185 -5.63489,-38.42419 12.88568,-78.48245 44.91277,-100.11961 22.1,-15.44013 50.58549,-20.43044 76.95377,-16.24872 7.4356,0.66562 15.94515,2.7007 9.86713,11.67309 -4.09882,8.42417 -17.41951,-2.33189 -25.67365,0.36211 -30.42541,-1.32372 -60.34867,14.32461 -77.50237,39.33432 -20.5204,29.20168 -21.22878,71.14859 -1.05237,100.74247 21.30874,34.05974 66.92746,49.93835 104.74774,36.30943 34.41651,-11.47838 60.60631,-44.90795 61.45785,-81.49549 1.01957,-12.36746 -1.59645,-24.55774 -5.03593,-36.34971 2.44763,-1.87774 10.75832,-7.71154 12.55697,-4.2641 4.38441,13.13647 6.94369,26.85449 5.99118,40.7565 -0.67507,44.11979 -33.63615,85.09428 -76.34708,95.87304 -12.22719,3.31076 -25.03456,4.38715 -37.6515,3.32852 z m -1.70663,-22.8643 c -27.79465,-4.29966 -53.15986,-23.20962 -63.45777,-49.67355 -7.05536,-15.97191 -7.24351,-34.45926 -3.71758,-51.32718 7.43202,-30.75756 34.65476,-56.13215 66.14664,-60.16949 11.78218,0.0362 23.97873,-1.41492 35.45206,1.752 2.29885,8.2398 -5.30976,18.98023 -6.67513,28.09201 -4.81866,16.43003 -10.88872,32.55113 -14.77366,49.21807 25.06075,-8.45148 49.3409,-19.10876 74.30561,-27.84682 5.28449,7.12846 4.80551,17.45884 5.86574,26.12457 2.16305,38.0302 -26.10677,74.96642 -63.45523,82.64441 -9.7419,1.75367 -19.84553,2.37786 -29.69068,1.18598 z m 42.52643,-18.95656 c 12.44518,-4.18148 20.36626,-19.79062 13.48774,-31.74746 -4.95004,-10.22508 -18.85683,-16.28591 -29.08144,-10.22741 -7.47245,7.20469 12.41504,12.99532 4.35404,3.29092 -3.49845,-7.59913 15.04128,8.27639 3.35552,9.26882 -7.53856,2.04928 -25.73255,-4.09846 -22.61509,9.46525 -1.48928,15.82875 14.73561,6.8948 23.60794,6.79605 13.92071,-1.29261 -7.95403,19.08092 -0.0697,6.80508 2.70681,-10.09547 -13.46381,6.31766 -1.4609,7.075 2.80757,0.54649 5.70146,8.4e-4 8.42194,-0.72625 z m -63.06535,-5.94025 c 10.66085,-6.21867 8.23015,-23.98551 -3.66066,-27.02394 -12.96901,-4.47657 -24.95395,12.65993 -16.29127,23.21223 4.33832,6.20243 13.66772,8.3428 19.95193,3.81171 z M 336.66344,387.914 c 6.97412,-6.22279 0.76078,-23.4885 -9.11468,-18.03248 -7.68552,5.46898 -4.61492,24.44004 6.78801,19.92446 l 1.25675,-0.8106 1.06992,-1.08138 0,0 z m -8.91397,-3.27178 c -5.90279,-8.12692 8.37858,-18.26042 7.96482,-5.06574 0.79975,4.54775 -4.17187,10.1115 -7.96482,5.06574 z m 81.75629,1.2566 c 10.13138,-6.34713 9.66839,-24.31502 -1.75516,-28.98283 -10.93909,-7.11032 -27.13793,4.52912 -24.20345,17.21586 1.50006,12.41843 15.66371,17.95097 25.95861,11.76697 z m -123.1955,-3.84869 c 0.80727,-7.2724 -4.47163,-7.22555 -5.69295,-1.1266 -3.78375,-7.89531 4.88327,-12.05922 8.74014,-4.15276 5.00846,7.03959 13.9139,10.81777 17.53285,0.23496 3.87408,-9.88718 -17.52144,-10.13322 -12.97601,-19.22925 3.00547,-3.01688 13.32896,0.20582 4.21859,1.65687 -2.46006,6.8612 12.16904,-1.54499 3.38741,-5.48646 -9.52194,-9.40178 -29.02384,-4.23725 -30.43346,9.84245 -3.30506,8.42677 6.78601,26.41452 15.22343,18.26079 l 0,0 z m 49.53491,-30.07138 c 13.42128,-6.29722 10.53668,-29.26467 -4.1759,-31.73444 -12.32195,-3.67242 -25.04538,9.30593 -20.89823,21.54291 2.6578,10.45012 15.89908,15.14301 25.07413,10.19153 z m -38.22761,-14.87697 c 6.32991,-9.31512 -10.51533,-22.55893 -17.7786,-13.37437 -4.94324,9.01685 10.47945,20.02525 17.7786,13.37437 z m -11.88004,-4.15921 c -11.23213,-10.60302 13.78567,-9.93941 9.00135,1.1043 -2.53256,2.91331 -6.6854,0.90006 -9.00135,-1.1043 z m 53.60284,-22.99294 c 11.61314,-2.67881 7.86516,-22.77916 -4.26356,-16.29447 -10.02834,1.98341 -11.44379,20.60752 1.00813,17.4957 l 1.58073,-0.49264 1.6747,-0.70859 z m -7.9594,-3.03982 c -5.46918,-10.80862 18.63796,-13.84359 9.34837,-1.99935 -2.12347,2.55365 -6.39055,3.39754 -9.34837,1.99935 z m 23.71585,45.41667 c 7.61362,-23.71991 14.2154,-47.79998 22.75978,-71.19991 7.90493,-4.31981 19.06454,7.82609 26.83169,11.77044 10.78525,9.13419 20.4314,20.55409 24.9162,34.12261 -25.01413,10.12189 -50.14464,19.97613 -75.37101,29.55686 -0.0768,-1.47175 0.5217,-2.85196 0.86334,-4.25 z m 45.86286,-22.46246 c 9.47179,-7.53069 7.52461,-24.96912 -4.49986,-28.7494 -6.15797,-5.99254 -26.90262,4.52436 -13.62307,8.46181 7.72433,0.59224 -6.09154,-7.99148 2.93339,-4.65948 9.8049,10.2154 -17.83987,6.97904 -13.42876,17.55353 2.79032,16.08788 16.88541,-3.68579 23.17643,2.25134 1.46859,5.54977 -5.30074,9.82763 -2.80236,1.68797 -5.9522,-0.71525 -2.11904,11.98797 4.03044,6.04217 1.52467,-0.63642 2.99921,-1.45321 4.21379,-2.58794 z m 33.88048,-13.75552 c -10.44329,-21.59193 -30.12714,-37.5501 -52.41511,-45.80663 -3.02651,-2.19609 1.61354,-9.99249 3.58351,-12.54354 12.54052,3.64353 24.27223,10.60559 34.44556,18.76549 12.96608,11.34467 24.47101,25.16206 30.25041,41.55775 -7.33833,4.3417 -13.31468,9.43453 -15.86437,-1.97307 z"
         id="path4149"
         inkscape:connector-curvature="0" />
    </g>
  </g>
</svg>
