<?xml version="1.0" encoding="UTF-8" standalone="no"?>
<!-- Created with Inkscape (http://www.inkscape.org/) -->

<svg
   xmlns:dc="http://purl.org/dc/elements/1.1/"
   xmlns:cc="http://creativecommons.org/ns#"
   xmlns:rdf="http://www.w3.org/1999/02/22-rdf-syntax-ns#"
   xmlns:svg="http://www.w3.org/2000/svg"
   xmlns="http://www.w3.org/2000/svg"
   xmlns:sodipodi="http://sodipodi.sourceforge.net/DTD/sodipodi-0.dtd"
   xmlns:inkscape="http://www.inkscape.org/namespaces/inkscape"
   id="svg2"
   version="1.1"
   inkscape:version="0.91 r13725"
   width="96"
   height="96"
   viewBox="0 0 96 95.999999"
   sodipodi:docname="cart.svg"
   inkscape:export-filename="/home/bender/Dropbox/vue/cart.png"
   inkscape:export-xdpi="90"
   inkscape:export-ydpi="90">
  <metadata
     id="metadata8">
    <rdf:RDF>
      <cc:Work
         rdf:about="">
        <dc:format>image/svg+xml</dc:format>
        <dc:type
           rdf:resource="http://purl.org/dc/dcmitype/StillImage" />
        <dc:title />
      </cc:Work>
    </rdf:RDF>
  </metadata>
  <defs
     id="defs6" />
  <sodipodi:namedview
     pagecolor="#ffffff"
     bordercolor="#666666"
     borderopacity="1"
     objecttolerance="10"
     gridtolerance="10"
     guidetolerance="10"
     inkscape:pageopacity="0"
     inkscape:pageshadow="2"
     inkscape:window-width="1680"
     inkscape:window-height="1026"
     id="namedview4"
     showgrid="false"
     fit-margin-top="0"
     fit-margin-left="0"
     fit-margin-right="0"
     fit-margin-bottom="0"
     inkscape:zoom="6.5619509"
     inkscape:cx="-21.875076"
     inkscape:cy="56.695941"
     inkscape:window-x="1920"
     inkscape:window-y="24"
     inkscape:window-maximized="1"
     inkscape:current-layer="svg2" />
  <g
     id="g4138"
     transform="matrix(0.15761427,0,0,0.15761427,-46.575017,1.4141764)"
     style="fill:#d3bc5f">
    <path
       style="fill:#d3bc5f"
       d="m 496,598.11426 c -16.12938,-5.21475 -27.24178,-16.11181 -32.4007,-31.77283 -2.1471,-6.51797 -2.21337,-20.03308 -0.13225,-26.97058 4.39022,-14.63495 16.10077,-26.78205 30.52519,-31.6631 11.48435,-3.88616 28.33533,-2.11632 38.92211,4.08794 6.16462,3.61271 14.60246,12.3064 17.43555,17.96423 4.74993,9.48583 5.90214,14.75644 5.48676,25.09824 -0.34734,8.6477 -0.77796,10.48582 -4.09091,17.46195 -10.132,21.3351 -34.56694,32.64141 -55.74575,25.79415 z m 285,0 c -16.49661,-5.33348 -28.45155,-17.41574 -32.4134,-32.7586 -8.007,-31.00835 14.18407,-59.84095 45.9134,-59.65476 10.20226,0.0599 17.5651,2.25522 25.58573,7.62881 8.22493,5.51047 13.79076,12.4198 17.83981,22.14607 2.77275,6.66046 3.25307,9.04537 3.31115,16.44078 0.10601,13.49905 -3.55989,22.99805 -12.67518,32.84366 C 816.56742,597.71526 796.87107,603.24549 781,598.11426 Z M 451.69799,471.55606 c -8.73649,-3.11624 -16.41106,-10.66345 -19.73267,-19.4052 -1.00117,-2.63488 -14.93055,-83.50922 -30.95417,-179.72077 C 384.98752,176.21854 371.63111,96.4875 371.33023,95.25 L 370.78318,93 346.57309,93 c -18.91135,0 -25.3476,-0.337805 -29.40742,-1.543442 -7.23743,-2.149285 -14.7544,-8.583647 -18.56816,-15.893937 -2.71629,-5.206645 -3.09751,-6.929674 -3.09751,-14 0,-6.956312 0.40716,-8.866188 2.96729,-13.918904 3.62971,-7.163631 9.94828,-12.907207 17.17313,-15.61037 5.14704,-1.925754 7.64178,-2.03283 47.14709,-2.023578 l 41.71249,0.0098 5.49274,2.55669 c 7.57789,3.527257 11.52457,6.743978 14.49662,11.815403 3.50988,5.989155 4.91251,11.451924 8.04884,31.347521 l 2.71757,17.239151 222.62212,0.260849 L 880.5,93.5 l 4.72479,2.182618 c 11.13062,5.141792 18.28786,14.757542 19.32738,25.966302 0.41236,4.44625 -3.39266,33.22216 -15.8478,119.85108 C 870.37991,368.95155 871.95064,361.36361 862.04952,370.26557 852.68328,378.68663 870.14787,378 665.32186,378 565.04484,378 483,378.2412 483,378.536 c 0,0.29479 1.125,7.07237 2.5,15.06129 1.375,7.98891 2.5,14.94246 2.5,15.45233 0,0.56456 64.41662,1.02934 164.75,1.1887 L 817.5,410.5 l 5.27011,2.3818 c 6.93327,3.13344 14.48754,11.37786 16.82002,18.35666 5.49288,16.43472 -2.57685,33.76897 -18.54536,39.83653 -4.93398,1.87476 -9.77103,1.92386 -185.3055,1.88112 -149.09603,-0.0363 -180.89621,-0.27822 -184.04128,-1.40005 z M 556,283.5 l 0,-31.5 -47.125,0 -47.125,0 0.53272,2.75 c 0.293,1.5125 2.68065,15.6875 5.30588,31.5 l 4.77315,28.75 41.81912,0 41.81913,0 0,-31.5 z m 127,0 0,-31.5 -47.5,0 -47.5,0 0,31.5 0,31.5 47.5,0 47.5,0 0,-31.5 z m 131.41788,28.75 C 814.96798,309.62726 823,253.779 823,252.57678 823,252.25955 798.7,252 769,252 l -54,0 0,31.5 0,31.5 49.42054,0 49.42055,0 0.57679,-2.75 z M 508.08179,220 556,220 l 0,-31.5 0,-31.5 -55.10841,0 -55.10841,0 0.53498,2.25 c 0.29423,1.2375 2.63171,15.075 5.1944,30.75 2.56268,15.675 4.84952,29.10919 5.08186,29.85375 0.23902,0.76597 1.10557,1.09162 1.9958,0.75 C 459.45556,220.27169 481.72677,220 508.08179,220 Z M 683,188.5 l 0,-31.5 -47.5,0 -47.5,0 0,31.5 0,31.5 47.5,0 47.5,0 0,-31.5 z m 145,30.54009 c 0,-0.85511 7.45559,-54.17607 8.36013,-59.79009 l 0.36253,-2.25 -60.86133,0 -60.86133,0 0,31.5 0,31.5 56.5,0 c 35.42697,0 56.5,-0.35802 56.5,-0.95991 z"
       id="path4140"
       inkscape:connector-curvature="0" />
  </g>
</svg>
