<?xml version="1.0" encoding="UTF-8" standalone="no"?>
<!-- Created with Inkscape (http://www.inkscape.org/) -->

<svg
   xmlns:dc="http://purl.org/dc/elements/1.1/"
   xmlns:cc="http://creativecommons.org/ns#"
   xmlns:rdf="http://www.w3.org/1999/02/22-rdf-syntax-ns#"
   xmlns:svg="http://www.w3.org/2000/svg"
   xmlns="http://www.w3.org/2000/svg"
   xmlns:sodipodi="http://sodipodi.sourceforge.net/DTD/sodipodi-0.dtd"
   xmlns:inkscape="http://www.inkscape.org/namespaces/inkscape"
   width="59.266914mm"
   height="56.014343mm"
   viewBox="0 0 210.00088 198.47602"
   id="svg2"
   version="1.1"
   inkscape:version="0.91 r13725"
   sodipodi:docname="demo_logo_1.svg">
  <defs
     id="defs4" />
  <sodipodi:namedview
     id="base"
     pagecolor="#ffffff"
     bordercolor="#666666"
     borderopacity="1.0"
     inkscape:pageopacity="0.0"
     inkscape:pageshadow="2"
     inkscape:zoom="0.98994949"
     inkscape:cx="47.776079"
     inkscape:cy="-99.636509"
     inkscape:document-units="px"
     inkscape:current-layer="layer1"
     showgrid="false"
     fit-margin-top="0"
     fit-margin-left="0"
     fit-margin-right="0"
     fit-margin-bottom="0"
     inkscape:window-width="1680"
     inkscape:window-height="1026"
     inkscape:window-x="1920"
     inkscape:window-y="24"
     inkscape:window-maximized="1" />
  <metadata
     id="metadata7">
    <rdf:RDF>
      <cc:Work
         rdf:about="">
        <dc:format>image/svg+xml</dc:format>
        <dc:type
           rdf:resource="http://purl.org/dc/dcmitype/StillImage" />
        <dc:title></dc:title>
      </cc:Work>
    </rdf:RDF>
  </metadata>
  <g
     inkscape:label="Layer 1"
     inkscape:groupmode="layer"
     id="layer1"
     transform="translate(-260.75311,-42.775706)">
    <g
       id="g4147"
       transform="translate(-9.0913729,-15.152284)">
      <path
         style="fill:#5f2240"
         d="m 312.84448,256.20057 c -13.18426,-1.75103 -24.55316,-6.14256 -31.02791,-11.98534 -7.28836,-6.57697 -8.81849,-13.53393 -4.57084,-20.78199 10.20928,-17.42084 51.34017,-23.22073 77.36453,-10.90924 6.80507,3.21931 13.83274,10.00224 14.9899,14.46787 l 0.85127,3.28516 53.11537,6.59916 c 33.41347,4.15135 53.70186,7.0859 54.69653,7.9114 2.38319,1.97787 2.00441,6.75515 -0.66885,8.43578 -1.97373,1.24085 -5.01269,1.05941 -24.75,-1.47767 -12.375,-1.59072 -36.78673,-4.64814 -54.2483,-6.79428 l -31.7483,-3.90208 -3.19342,2.98311 c -7.37328,6.88767 -21.57048,11.5446 -37.2113,12.20595 -5.55427,0.23485 -11.67368,0.21783 -13.59868,-0.0378 z m 27.83258,-11.14328 c 6.04099,-3.17078 14.50188,-7.42665 17.16742,-8.63531 2.17153,-0.98465 2.53897,-1.87033 2.79664,-6.74104 0.26787,-5.06348 0.0369,-5.81175 -2.38054,-7.71334 -1.47246,-1.15823 -4.53095,-2.56465 -6.79665,-3.12538 -2.2657,-0.56073 -5.91945,-1.92466 -8.11945,-3.03096 -4.67037,-2.34855 -22.11403,-4.09703 -30,-3.00707 -2.75,0.3801 -7.25,1.85517 -10,3.27794 -2.7554,1.42556 -7.69352,2.88924 -11,3.26043 -7.86195,0.8826 -10.5,2.60101 -10.5,6.83965 0,3.5957 4.34165,11.20695 8.77003,15.37457 5.93807,5.58841 9.01549,6.21411 28.53742,5.80222 15.21271,-0.32097 18.40092,-0.66189 21.52513,-2.30171 z m 31.38238,-28.65898 c -4.02687,-5.58025 -12.54532,-12.45944 -16.37751,-13.22588 -2.48872,-0.49774 -2.83826,-1.01301 -2.84404,-4.19249 -0.004,-1.99375 -0.90066,-4.975 -1.99341,-6.625 -3.14507,-4.7489 -2.33669,-5.23467 1.87203,-1.12496 2.74475,2.68018 5.03187,3.93651 7.85585,4.31529 5.06395,0.67921 7.77116,-0.78804 10.18537,-5.52028 2.99027,-5.86142 3.44128,-10.23712 1.66995,-16.20183 -0.87076,-2.93217 -1.5832,-6.14955 -1.5832,-7.14972 0,-1.71406 0.11181,-1.70669 1.94682,0.12832 1.07075,1.07075 3.20825,2.60299 4.75,3.40498 3.77703,1.96475 7.01705,5.59228 7.79439,8.72662 0.47319,1.90791 -0.4177,4.58574 -3.42587,10.29751 -4.44189,8.43406 -4.87293,11.16167 -2.4916,15.76666 1.76515,3.41344 2.61838,3.164 3.04776,-0.89099 0.56332,-5.31978 1.46184,-7.33808 5.02024,-11.27681 4.13239,-4.57406 5.73478,-5.09532 4.33351,-1.40969 -1.62676,4.27869 -1.11211,7.56723 1.77475,11.34051 2.25797,2.95128 2.75,4.61424 2.75,9.29439 0,3.135 -0.45,6.14141 -1,6.68091 -0.55,0.5395 -5.275,1.25852 -10.5,1.59782 l -9.5,0.61691 -3.28504,-4.55227 z m 32.85984,0.77009 c 5.74089,-5.18655 9.11306,-12.31562 9.70402,-20.51514 0.7376,-10.2342 -1.3071,-15.35841 -12.37333,-31.00881 -2.88498,-4.08009 -3.59576,-10.86556 -2.12533,-20.28951 l 0.78015,-5 -2.45008,2.71268 c -1.44832,1.60354 -2.94196,5.07896 -3.65307,8.5 -2.8787,13.84894 -4.06918,16.28732 -7.95186,16.28732 -2.67916,0 -7.63425,-4.51072 -10.698,-9.7386 -4.34026,-7.4061 -4.23011,-20.50865 0.30383,-36.14191 l 0.69039,-2.3805 -4.90076,2.83094 c -7.90134,4.56422 -15.03385,10.10645 -17.55448,13.64049 -1.84523,2.58708 -2.34628,4.59111 -2.34628,9.38426 0,5.60179 0.38422,6.67249 4.75106,13.2396 7.52313,11.31375 8.67811,19.12337 2.95455,19.97771 -2.51472,0.37535 -4.20381,-2.53728 -6.74162,-11.62512 -1.82257,-6.52656 -4.93065,-10.03073 -10.36526,-11.6862 -2.08304,-0.63453 -2.29146,-0.48425 -1.57263,1.13393 0.45575,1.02597 1.01358,3.94837 1.23961,6.49423 0.4736,5.33417 -1.32904,9.57566 -5.73998,13.50583 -3.49027,3.10985 -5.82812,8.60078 -6.22923,14.63069 l -0.2965,4.45731 -10.5,0.63499 c -9.37835,0.56716 -18.75431,2.208 -23,4.0251 -2.4895,1.06547 -1.60455,-37.31659 1.09342,-47.4239 5.39228,-20.20095 21.88806,-38.29151 42.7665,-46.90109 11.41159,-4.70576 21.11244,-6.488219 34.64008,-6.364855 14.16474,0.129174 23.83647,2.325295 36,8.174355 18.63363,8.96033 30.76908,21.97566 37.85339,40.59793 l 3.05662,8.03481 0.38194,26.97632 c 0.21007,14.83698 0.0854,29.34948 -0.27696,32.25 l -0.6589,5.27368 -25.43093,0 -25.43092,0 4.08056,-3.68654 z m 54.27349,-3.06346 c 0.35062,-3.7125 0.64069,-8.2125 0.6446,-10 l 0.007,-3.25 9.5,0 9.5,0 0,10 0,10 -10.1446,0 -10.14461,0 0.6375,-6.75 z m -189.34829,-5.54179 0,-8.70821 9.57332,0 c 8.42753,0 9.5346,0.20109 9.24976,1.68014 -0.17796,0.92407 -2.57345,2.98729 -5.32332,4.58492 -2.74987,1.59764 -6.91226,4.76027 -9.24976,7.02808 l -4.25,4.12328 0,-8.70821 z m 189.97779,-17.20821 c -0.0126,-0.55 -0.12529,-5.05 -0.25037,-10 l -0.22742,-9 9.75,-0.28621 9.75,-0.28621 0,10.48926 0,10.48927 -9.49963,-0.20305 c -5.51224,-0.11783 -9.50927,-0.6228 -9.52258,-1.20306 z m -180.72779,-0.24507 -9.25,-0.32998 0,-9.96248 0,-9.96247 9.5,0 9.5,0 0,10.5 c 0,5.775 -0.1125,10.40661 -0.25,10.29246 -0.1375,-0.11415 -4.4125,-0.35604 -9.5,-0.53753 z m 180.77886,-28.08826 c -0.56587,-0.18334 -1.02886,-1.33877 -1.02886,-2.56763 0,-1.22886 -0.85663,-5.49713 -1.90362,-9.48504 -1.36498,-5.19911 -1.5772,-7.35064 -0.75,-7.60379 0.63449,-0.19417 4.90591,-1.56361 9.49205,-3.0432 4.58613,-1.47958 8.68745,-2.30245 9.11404,-1.82858 1.26966,1.41038 3.0285,9.83471 3.69196,17.68346 l 0.62059,7.34155 -9.10364,-0.0817 c -5.00701,-0.045 -9.56664,-0.23172 -10.13252,-0.41505 z m -190.02205,-4.3287 c -0.007,-3.79814 2.60371,-18.78182 3.41369,-19.5918 0.55693,-0.55693 17.73898,4.651 18.89619,5.72749 0.44918,0.41784 0.13316,3.18221 -0.70227,6.14303 -0.83543,2.96082 -1.65294,6.73331 -1.81669,8.38331 l -0.29773,3 -9.74319,0 -9.7432,0 -0.007,-3.66203 z m 16.02672,-24.83473 c -4.65656,-1.54113 -8.62035,-3.26371 -8.80843,-3.82795 -0.65389,-1.96165 9.93421,-19.91965 12.78264,-21.68008 0.90443,-0.55896 8.04221,6.4847 13.14435,12.97102 1.86072,2.36551 1.85034,2.40548 -2.32514,8.95494 -2.3068,3.61836 -4.67406,6.53502 -5.26057,6.48148 -0.58651,-0.0535 -4.87629,-1.35827 -9.53285,-2.89941 z m 163.51876,-1.25324 c -1.0334,-1.7875 -3.19066,-4.93424 -4.79389,-6.99275 l -2.91497,-3.74275 2.16484,-2.75214 c 1.19066,-1.51369 4.41936,-5.13598 7.17488,-8.04953 4.09771,-4.33273 5.27292,-5.07922 6.45359,-4.09935 1.83098,1.51958 11.62041,16.49458 13.14727,20.11153 l 1.15034,2.72501 -9.67742,3.02499 c -5.32258,1.66374 -9.93578,3.02499 -10.25157,3.02499 -0.31578,0 -1.41966,-1.4625 -2.45307,-3.25 z M 303.51314,109.43335 c -3.66777,-4.08188 -6.66866,-7.85221 -6.66866,-8.37853 0,-1.873565 18.42373,-16.230972 19.37179,-15.09622 0.85753,1.026396 8.62821,18.70642 8.62821,19.63109 0,0.5782 -0.56423,1.26779 -1.25385,1.53242 -0.68961,0.26463 -3.80926,2.56277 -6.93255,5.10699 -3.12329,2.54421 -5.85816,4.62584 -6.0775,4.62584 -0.21934,0 -3.39968,-3.33972 -7.06744,-7.42159 z m 127.33398,1.9238 c -2.30262,-1.92379 -5.4952,-4.27081 -7.09461,-5.21561 -1.59942,-0.9448 -2.90803,-2.10619 -2.90803,-2.58086 0,-2.01043 8.38658,-18.705463 9.39503,-18.702558 2.40514,0.0069 19.60497,12.786596 19.60497,14.566709 0,0.974269 -13.14222,15.430109 -14.02796,15.430109 -0.43054,0 -2.66678,-1.57401 -4.9694,-3.49779 z M 328.0124,91.686544 c -2.30889,-5.132383 -4.19121,-9.636396 -4.18295,-10.008919 0.0291,-1.313192 22.81165,-9.359398 23.7745,-8.39655 0.51482,0.514821 5.38213,20.804449 5.02732,20.956608 -1.585,0.679709 -16.77869,5.860517 -18.35385,6.258367 -1.789,0.45187 -2.63174,-0.733132 -6.26502,-8.809506 z m 74.33208,4.837408 c -4.95,-1.665262 -9.19844,-3.18297 -9.44097,-3.372683 -0.41988,-0.328442 3.7731,-19.050749 4.58618,-20.477974 0.90949,-1.596459 24.77564,6.534694 24.14177,8.225056 -2.5472,6.792701 -8.52884,18.896024 -9.28698,18.791379 -0.55,-0.07592 -5.05,-1.500516 -10,-3.165778 z m -41.5,-4.655146 c 0,-0.349618 -0.9,-7.105858 -2,-15.013867 -1.1,-7.908009 -2,-14.896875 -2,-15.530812 0,-4.109189 28.8906,-4.691285 31.39898,-0.632635 0.48714,0.788203 -3.81087,29.937378 -4.50722,30.568099 -0.72886,0.660163 -22.89176,1.24998 -22.89176,0.609215 z"
         id="path4149"
         inkscape:connector-curvature="0" />
    </g>
  </g>
</svg>
